<svg width="473" height="82" viewBox="0 0 473 82" fill="none" xmlns="http://www.w3.org/2000/svg">
<path d="M48.48 3.36V17.44H33.44V60H15.68V17.44H0.8V3.36H48.48ZM50.8969 37.44C50.8969 32.6933 51.6969 28.5867 53.2969 25.12C54.9502 21.6 57.1902 18.9333 60.0169 17.12C62.8435 15.2533 66.0169 14.32 69.5369 14.32C72.4702 14.32 75.0035 14.9333 77.1369 16.16C79.2702 17.3333 80.8969 18.96 82.0169 21.04V14.88H99.6969V60H82.0169V53.84C80.8969 55.92 79.2702 57.5733 77.1369 58.8C75.0035 59.9733 72.4702 60.56 69.5369 60.56C66.0169 60.56 62.8435 59.6533 60.0169 57.84C57.1902 55.9733 54.9502 53.3067 53.2969 49.84C51.6969 46.32 50.8969 42.1867 50.8969 37.44ZM82.0169 37.44C82.0169 35.04 81.4035 33.1733 80.1769 31.84C78.9502 30.5067 77.3769 29.84 75.4569 29.84C73.5369 29.84 71.9635 30.5067 70.7369 31.84C69.5102 33.1733 68.8969 35.04 68.8969 37.44C68.8969 39.84 69.5102 41.7067 70.7369 43.04C71.9635 44.3733 73.5369 45.04 75.4569 45.04C77.3769 45.04 78.9502 44.3733 80.1769 43.04C81.4035 41.7067 82.0169 39.84 82.0169 37.44ZM127.752 60.56C123.485 60.56 119.699 59.8667 116.392 58.48C113.139 57.0933 110.552 55.1733 108.632 52.72C106.712 50.2667 105.619 47.4933 105.352 44.4H122.392C122.605 45.7333 123.165 46.72 124.072 47.36C125.032 48 126.232 48.32 127.672 48.32C128.579 48.32 129.299 48.1333 129.832 47.76C130.365 47.3333 130.632 46.8267 130.632 46.24C130.632 45.2267 130.072 44.5067 128.952 44.08C127.832 43.6533 125.939 43.1733 123.272 42.64C120.019 42 117.325 41.3067 115.192 40.56C113.112 39.8133 111.272 38.5333 109.672 36.72C108.125 34.9067 107.352 32.4 107.352 29.2C107.352 26.4267 108.072 23.92 109.512 21.68C111.005 19.3867 113.192 17.6 116.072 16.32C118.952 14.9867 122.445 14.32 126.552 14.32C132.632 14.32 137.379 15.8133 140.792 18.8C144.259 21.7867 146.339 25.68 147.032 30.48H131.272C131.005 29.2533 130.445 28.32 129.592 27.68C128.739 26.9867 127.592 26.64 126.152 26.64C125.245 26.64 124.552 26.8267 124.072 27.2C123.592 27.52 123.352 28.0267 123.352 28.72C123.352 29.6267 123.912 30.32 125.032 30.8C126.152 31.2267 127.939 31.68 130.392 32.16C133.645 32.8 136.392 33.52 138.632 34.32C140.872 35.12 142.819 36.5067 144.472 38.48C146.125 40.4 146.952 43.0667 146.952 46.48C146.952 49.1467 146.179 51.5467 144.632 53.68C143.085 55.8133 140.845 57.4933 137.912 58.72C135.032 59.9467 131.645 60.56 127.752 60.56ZM182.88 60L171.76 42V60H154V0.799999H171.76V31.76L183.04 14.88H203.68L186.8 37.6L204.08 60H182.88ZM243.816 60.56C237.043 60.56 231.443 58.9867 227.016 55.84C222.643 52.64 220.27 47.9733 219.896 41.84H238.776C239.043 45.0933 240.483 46.72 243.096 46.72C244.056 46.72 244.856 46.5067 245.496 46.08C246.19 45.6 246.536 44.88 246.536 43.92C246.536 42.5867 245.816 41.52 244.376 40.72C242.936 39.8667 240.696 38.9067 237.656 37.84C234.03 36.56 231.016 35.3067 228.616 34.08C226.27 32.8533 224.243 31.0667 222.536 28.72C220.83 26.3733 220.003 23.36 220.056 19.68C220.056 16 220.99 12.88 222.856 10.32C224.776 7.70666 227.363 5.73333 230.616 4.4C233.923 3.06666 237.63 2.4 241.736 2.4C248.67 2.4 254.163 4 258.216 7.2C262.323 10.4 264.483 14.9067 264.696 20.72H245.576C245.523 19.12 245.123 17.9733 244.376 17.28C243.63 16.5867 242.723 16.24 241.656 16.24C240.91 16.24 240.296 16.5067 239.816 17.04C239.336 17.52 239.096 18.2133 239.096 19.12C239.096 20.4 239.79 21.4667 241.176 22.32C242.616 23.12 244.883 24.1067 247.976 25.28C251.55 26.6133 254.483 27.8933 256.776 29.12C259.123 30.3467 261.15 32.0533 262.856 34.24C264.563 36.4267 265.416 39.1733 265.416 42.48C265.416 45.9467 264.563 49.0667 262.856 51.84C261.15 54.56 258.67 56.6933 255.416 58.24C252.163 59.7867 248.296 60.56 243.816 60.56ZM289.416 21.04C290.536 18.96 292.136 17.3333 294.216 16.16C296.35 14.9333 298.883 14.32 301.816 14.32C305.336 14.32 308.51 15.2533 311.336 17.12C314.163 18.9333 316.376 21.6 317.976 25.12C319.63 28.5867 320.456 32.6933 320.456 37.44C320.456 42.1867 319.63 46.32 317.976 49.84C316.376 53.3067 314.163 55.9733 311.336 57.84C308.51 59.6533 305.336 60.56 301.816 60.56C298.883 60.56 296.35 59.9733 294.216 58.8C292.136 57.5733 290.536 55.92 289.416 53.84V81.6H271.656V14.88H289.416V21.04ZM302.456 37.44C302.456 35.04 301.843 33.1733 300.616 31.84C299.39 30.5067 297.816 29.84 295.896 29.84C293.976 29.84 292.403 30.5067 291.176 31.84C289.95 33.1733 289.336 35.04 289.336 37.44C289.336 39.84 289.95 41.7067 291.176 43.04C292.403 44.3733 293.976 45.04 295.896 45.04C297.816 45.04 299.39 44.3733 300.616 43.04C301.843 41.7067 302.456 39.84 302.456 37.44ZM323.631 37.44C323.631 32.6933 324.431 28.5867 326.031 25.12C327.685 21.6 329.925 18.9333 332.751 17.12C335.578 15.2533 338.751 14.32 342.271 14.32C345.205 14.32 347.738 14.9333 349.871 16.16C352.005 17.3333 353.631 18.96 354.751 21.04V14.88H372.431V60H354.751V53.84C353.631 55.92 352.005 57.5733 349.871 58.8C347.738 59.9733 345.205 60.56 342.271 60.56C338.751 60.56 335.578 59.6533 332.751 57.84C329.925 55.9733 327.685 53.3067 326.031 49.84C324.431 46.32 323.631 42.1867 323.631 37.44ZM354.751 37.44C354.751 35.04 354.138 33.1733 352.911 31.84C351.685 30.5067 350.111 29.84 348.191 29.84C346.271 29.84 344.698 30.5067 343.471 31.84C342.245 33.1733 341.631 35.04 341.631 37.44C341.631 39.84 342.245 41.7067 343.471 43.04C344.698 44.3733 346.271 45.04 348.191 45.04C350.111 45.04 351.685 44.3733 352.911 43.04C354.138 41.7067 354.751 39.84 354.751 37.44ZM378.006 37.44C378.006 32.7467 378.966 28.6667 380.886 25.2C382.86 21.68 385.58 18.9867 389.046 17.12C392.566 15.2533 396.566 14.32 401.046 14.32C406.913 14.32 411.846 15.9733 415.846 19.28C419.9 22.5867 422.46 27.1733 423.526 33.04H404.726C404.033 30.6933 402.673 29.52 400.646 29.52C399.206 29.52 398.06 30.1867 397.206 31.52C396.406 32.8533 396.006 34.8267 396.006 37.44C396.006 40.0533 396.406 42.0267 397.206 43.36C398.06 44.6933 399.206 45.36 400.646 45.36C402.673 45.36 404.033 44.1867 404.726 41.84H423.526C422.46 47.7067 419.9 52.2933 415.846 55.6C411.846 58.9067 406.913 60.56 401.046 60.56C396.566 60.56 392.566 59.6267 389.046 57.76C385.58 55.8933 382.86 53.2267 380.886 49.76C378.966 46.24 378.006 42.1333 378.006 37.44ZM472.836 37.04C472.836 38.2667 472.756 39.44 472.596 40.56H444.036C444.303 44.4533 445.93 46.4 448.916 46.4C450.836 46.4 452.223 45.52 453.076 43.76H471.876C471.236 46.96 469.876 49.84 467.796 52.4C465.77 54.9067 463.183 56.9067 460.036 58.4C456.943 59.84 453.53 60.56 449.796 60.56C445.316 60.56 441.316 59.6267 437.796 57.76C434.33 55.8933 431.61 53.2267 429.636 49.76C427.716 46.24 426.756 42.1333 426.756 37.44C426.756 32.7467 427.716 28.6667 429.636 25.2C431.61 21.68 434.33 18.9867 437.796 17.12C441.316 15.2533 445.316 14.32 449.796 14.32C454.276 14.32 458.25 15.2533 461.716 17.12C465.236 18.9333 467.956 21.5467 469.876 24.96C471.85 28.3733 472.836 32.4 472.836 37.04ZM454.836 32.8C454.836 31.3067 454.356 30.1867 453.396 29.44C452.436 28.64 451.236 28.24 449.796 28.24C446.65 28.24 444.81 29.76 444.276 32.8H454.836Z" fill="url(#paint0_linear_5_363)"/>
<defs>
<linearGradient id="paint0_linear_5_363" x1="0" y1="0" x2="77.9812" y2="216.016" gradientUnits="userSpaceOnUse">
<stop stop-color="#43DF4D"/>
<stop offset="1" stop-color="#6381FA"/>
</linearGradient>
</defs>
</svg>
