<svg width="30" height="22" viewBox="0 0 30 22" fill="none" xmlns="http://www.w3.org/2000/svg">
<path d="M26.0763 2.66714H21.1311V0H8.67795V2.66714H3.73274C1.67465 2.66714 0 4.14952 0 5.97126V21.9858H29.8097V5.97126C29.8097 4.14952 28.135 2.66714 26.0763 2.66714ZM10.695 1.7848H19.115V2.66714H10.695V1.7848ZM27.793 20.2013H2.0167V5.97126C2.0167 5.13336 2.78632 4.45164 3.73274 4.45164H26.0763C27.023 4.45164 27.793 5.13336 27.793 5.97126V20.2013Z" fill="white"/>
<path d="M20.1165 14.023L20.1658 10.5244L16.6795 10.5643L16.7219 7.56083L12.873 7.60488L12.8307 10.6084L9.34439 10.6483L9.29632 14.06L12.7826 14.0201L12.7391 17.1104L16.5879 17.0664L16.6302 14.0629L20.1165 14.023Z" fill="white"/>
</svg>
